<svg width="800" height="400" xmlns="http://www.w3.org/2000/svg"><text x="400" y="30" text-anchor="middle" font-size="16" font-weight="bold">Action Plan Timeline</text><text x="375" y="380" text-anchor="middle">Duration (Days)</text><line x1="150" y1="40" x2="150" y2="340" stroke="#eee" stroke-width="1"></line><text x="150" y="360" text-anchor="middle">0</text><line x1="225" y1="40" x2="225" y2="340" stroke="#eee" stroke-width="1"></line><text x="225" y="360" text-anchor="middle">30</text><line x1="300" y1="40" x2="300" y2="340" stroke="#eee" stroke-width="1"></line><text x="300" y="360" text-anchor="middle">60</text><line x1="375" y1="40" x2="375" y2="340" stroke="#eee" stroke-width="1"></line><text x="375" y="360" text-anchor="middle">90</text><line x1="450" y1="40" x2="450" y2="340" stroke="#eee" stroke-width="1"></line><text x="450" y="360" text-anchor="middle">120</text><line x1="525" y1="40" x2="525" y2="340" stroke="#eee" stroke-width="1"></line><text x="525" y="360" text-anchor="middle">150</text><line x1="600" y1="40" x2="600" y2="340" stroke="#eee" stroke-width="1"></line><text x="600" y="360" text-anchor="middle">180</text><text x="140" y="90" text-anchor="end" alignment-baseline="middle">Immediate Actions</text><rect x="150" y="40" width="75" height="50" fill="#8884d8" rx="4"></rect><text x="610" y="40" font-size="10" fill="#666">Secure executive sponsorship</text><text x="610" y="54" font-size="10" fill="#666">Allocate budget</text><text x="610" y="68" font-size="10" fill="#666">Form implementation team</text><text x="610" y="82" font-size="10" fill="#666">Begin baseline assessment</text><text x="140" y="190" text-anchor="end" alignment-baseline="middle">Short-Term Actions</text><rect x="150" y="140" width="225" height="50" fill="#8884d8" rx="4"></rect><text x="610" y="140" font-size="10" fill="#666">Complete documentation</text><text x="610" y="154" font-size="10" fill="#666">Implement core processes</text><text x="610" y="168" font-size="10" fill="#666">Begin staff training</text><text x="610" y="182" font-size="10" fill="#666">Establish measurement systems</text><text x="140" y="290" text-anchor="end" alignment-baseline="middle">Medium-Term Actions</text><rect x="150" y="240" width="450" height="50" fill="#8884d8" rx="4"></rect><text x="610" y="240" font-size="10" fill="#666">Complete implementation</text><text x="610" y="254" font-size="10" fill="#666">Achieve certification</text><text x="610" y="268" font-size="10" fill="#666">Create RFP templates</text><text x="610" y="282" font-size="10" fill="#666">Train bid team</text><rect x="640" y="20" width="15" height="15" fill="#8884d8"></rect><text x="660" y="32" font-size="12">Timeline Duration</text></svg>