<svg width="800" height="500" xmlns="http://www.w3.org/2000/svg"><text x="400" y="30" text-anchor="middle" font-size="16" font-weight="bold">Budget Allocation</text><text x="-250" y="25" transform="rotate(-90)" text-anchor="middle">Amount (NZD)</text><line x1="80" y1="40" x2="640" y2="40" stroke="#eee" stroke-width="1"></line><line x1="80" y1="120" x2="640" y2="120" stroke="#eee" stroke-width="1"></line><line x1="80" y1="200" x2="640" y2="200" stroke="#eee" stroke-width="1"></line><line x1="80" y1="280" x2="640" y2="280" stroke="#eee" stroke-width="1"></line><line x1="80" y1="360" x2="640" y2="360" stroke="#eee" stroke-width="1"></line><line x1="80" y1="440" x2="640" y2="440" stroke="#eee" stroke-width="1"></line><text x="150" y="460" text-anchor="middle">One-Time Costs</text><rect x="80" y="275.2941176470588" width="140" height="164.7058823529412" fill="#8884d8"></rect><rect x="80" y="157.6470588235294" width="140" height="117.6470588235294" fill="#82ca9d"></rect><rect x="80" y="87.05882352941177" width="140" height="70.58823529411765" fill="#ffc658"></rect><rect x="80" y="40" width="140" height="47.05882352941177" fill="#ff8042"></rect><text x="430" y="460" text-anchor="middle">Annual Costs</text><rect x="360" y="383.52941176470586" width="140" height="56.470588235294116" fill="#a4de6c"></rect><rect x="360" y="345.88235294117646" width="140" height="37.64705882352941" fill="#d0ed57"></rect><rect x="360" y="322.3529411764706" width="140" height="23.529411764705884" fill="#83a6ed"></rect><rect x="650" y="40" width="15" height="15" fill="#8884d8"></rect><text x="670" y="52" font-size="12">Certification Fees</text><rect x="650" y="60" width="15" height="15" fill="#82ca9d"></rect><text x="670" y="72" font-size="12">Implementation</text><rect x="650" y="80" width="15" height="15" fill="#ffc658"></rect><text x="670" y="92" font-size="12">Training</text><rect x="650" y="100" width="15" height="15" fill="#ff8042"></rect><text x="670" y="112" font-size="12">Documentation</text><rect x="650" y="120" width="15" height="15" fill="#a4de6c"></rect><text x="670" y="132" font-size="12">Maintenance Fees</text><rect x="650" y="140" width="15" height="15" fill="#d0ed57"></rect><text x="670" y="152" font-size="12">Audit Costs</text><rect x="650" y="160" width="15" height="15" fill="#83a6ed"></rect><text x="670" y="172" font-size="12">Training Updates</text><text x="70" y="40" text-anchor="end" alignment-baseline="middle">$85,000</text><text x="70" y="120" text-anchor="end" alignment-baseline="middle">$68,000</text><text x="70" y="200" text-anchor="end" alignment-baseline="middle">$51,000</text><text x="70" y="280" text-anchor="end" alignment-baseline="middle">$34,000</text><text x="70" y="360" text-anchor="end" alignment-baseline="middle">$17,000</text><text x="70" y="440" text-anchor="end" alignment-baseline="middle">$0</text></svg>