<svg width="500" height="400" xmlns="http://www.w3.org/2000/svg"><text x="250" y="30" text-anchor="middle" font-size="16" font-weight="bold">Cost Comparison</text><text x="-200" y="25" transform="rotate(-90)" text-anchor="middle">Cost (NZD)</text><rect x="60" y="111.42857142857142" width="41" height="228.57142857142858" fill="#8884d8"></rect><rect x="106" y="65.71428571428572" width="41" height="274.2857142857143" fill="#82ca9d"></rect><text x="101" y="360" text-anchor="middle" transform="rotate(45, 101, 360)">Initial Setup</text><rect x="162.5" y="157.14285714285717" width="41" height="182.85714285714283" fill="#8884d8"></rect><rect x="208.5" y="111.42857142857142" width="41" height="228.57142857142858" fill="#82ca9d"></rect><text x="203.5" y="360" text-anchor="middle" transform="rotate(45, 203.5, 360)">Implementation</text><rect x="265" y="202.85714285714286" width="41" height="137.14285714285714" fill="#8884d8"></rect><rect x="311" y="157.14285714285717" width="41" height="182.85714285714283" fill="#82ca9d"></rect><text x="306" y="360" text-anchor="middle" transform="rotate(45, 306, 360)">Certification</text><rect x="367.5" y="248.57142857142858" width="41" height="91.42857142857142" fill="#8884d8"></rect><rect x="413.5" y="202.85714285714286" width="41" height="137.14285714285714" fill="#82ca9d"></rect><text x="408.5" y="360" text-anchor="middle" transform="rotate(45, 408.5, 360)">Maintenance</text><rect x="400" y="20" width="15" height="15" fill="#8884d8"></rect><text x="420" y="32" font-size="12">Toitū</text><rect x="400" y="40" width="15" height="15" fill="#82ca9d"></rect><text x="420" y="52" font-size="12">B Corp</text></svg>