<svg width="800" height="700" xmlns="http://www.w3.org/2000/svg"><text x="400" y="30" text-anchor="middle" font-size="16" font-weight="bold">Market Trends</text><path d="M 80,138 L 286.66666666666663,110 L 493.3333333333333,82 L 700,54" stroke="#8884d8" stroke-width="2" fill="none"></path><path d="M 80,194 L 286.66666666666663,152 L 493.3333333333333,96 L 700,68" stroke="#82ca9d" stroke-width="2" fill="none"></path><path d="M 80,208 L 286.66666666666663,166 L 493.3333333333333,124 L 700,82" stroke="#ffc658" stroke-width="2" fill="none"></path><text x="80" y="340" text-anchor="middle">2022</text><text x="286.66666666666663" y="340" text-anchor="middle">2023</text><text x="493.3333333333333" y="340" text-anchor="middle">2024</text><text x="700" y="340" text-anchor="middle">2025</text><text x="400" y="380" text-anchor="middle" font-size="16" font-weight="bold">Business Drivers Analysis</text><rect x="80" y="388" width="33.75" height="252" fill="#8884d8"></rect><rect x="118.75" y="458" width="33.75" height="182" fill="#82ca9d"></rect><rect x="157.5" y="402" width="33.75" height="238" fill="#ffc658"></rect><rect x="235" y="402" width="33.75" height="238" fill="#8884d8"></rect><rect x="273.75" y="444" width="33.75" height="196" fill="#82ca9d"></rect><rect x="312.5" y="416" width="33.75" height="224" fill="#ffc658"></rect><rect x="390" y="416" width="33.75" height="224" fill="#8884d8"></rect><rect x="428.75" y="472" width="33.75" height="168" fill="#82ca9d"></rect><rect x="467.5" y="430" width="33.75" height="210" fill="#ffc658"></rect><rect x="545" y="430" width="33.75" height="210" fill="#8884d8"></rect><rect x="583.75" y="430" width="33.75" height="210" fill="#82ca9d"></rect><rect x="622.5" y="444" width="33.75" height="196" fill="#ffc658"></rect><text x="157.5" y="660" text-anchor="middle" transform="rotate(-45 157.5,660)">Government RFP Position</text><text x="312.5" y="660" text-anchor="middle" transform="rotate(-45 312.5,660)">Market Competitiveness</text><text x="467.5" y="660" text-anchor="middle" transform="rotate(-45 467.5,660)">Environmental Commitment</text><text x="622.5" y="660" text-anchor="middle" transform="rotate(-45 622.5,660)">Operational Efficiency</text><rect x="640" y="20" width="15" height="15" fill="#8884d8"></rect><text x="660" y="32" font-size="12">Market Demand</text><rect x="640" y="40" width="15" height="15" fill="#82ca9d"></rect><text x="660" y="52" font-size="12">RFP Requirements</text><rect x="640" y="60" width="15" height="15" fill="#ffc658"></rect><text x="660" y="72" font-size="12">Adoption Rate</text><rect x="640" y="80" width="15" height="15" fill="#8884d8"></rect><text x="660" y="92" font-size="12">importance</text><rect x="640" y="100" width="15" height="15" fill="#82ca9d"></rect><text x="660" y="112" font-size="12">readiness</text><rect x="640" y="120" width="15" height="15" fill="#ffc658"></rect><text x="660" y="132" font-size="12">impact</text></svg>