<svg width="600" height="400" xmlns="http://www.w3.org/2000/svg"><text x="300" y="30" text-anchor="middle" font-size="16" font-weight="bold">Risk Analysis</text><text x="300" y="390" text-anchor="middle">Impact</text><text x="-200" y="25" transform="rotate(-90)" text-anchor="middle">Probability</text><line x1="60" y1="40" x2="60" y2="340" stroke="#eee" stroke-width="1"></line><line x1="60" y1="40" x2="500" y2="40" stroke="#eee" stroke-width="1"></line><line x1="148" y1="40" x2="148" y2="340" stroke="#eee" stroke-width="1"></line><line x1="60" y1="100" x2="500" y2="100" stroke="#eee" stroke-width="1"></line><line x1="236" y1="40" x2="236" y2="340" stroke="#eee" stroke-width="1"></line><line x1="60" y1="160" x2="500" y2="160" stroke="#eee" stroke-width="1"></line><line x1="324" y1="40" x2="324" y2="340" stroke="#eee" stroke-width="1"></line><line x1="60" y1="220" x2="500" y2="220" stroke="#eee" stroke-width="1"></line><line x1="412" y1="40" x2="412" y2="340" stroke="#eee" stroke-width="1"></line><line x1="60" y1="280" x2="500" y2="280" stroke="#eee" stroke-width="1"></line><line x1="500" y1="40" x2="500" y2="340" stroke="#eee" stroke-width="1"></line><line x1="60" y1="340" x2="500" y2="340" stroke="#eee" stroke-width="1"></line><circle cx="324" cy="100" r="6" fill="#8884d8" opacity="0.7"></circle><text x="324" y="90" text-anchor="middle" font-size="10">Resource Availability</text><circle cx="412" cy="160" r="6" fill="#8884d8" opacity="0.7"></circle><text x="412" y="150" text-anchor="middle" font-size="10">Timeline Delays</text><circle cx="324" cy="160" r="6" fill="#8884d8" opacity="0.7"></circle><text x="324" y="150" text-anchor="middle" font-size="10">Data Collection</text><circle cx="236" cy="100" r="6" fill="#82ca9d" opacity="0.7"></circle><text x="236" y="90" text-anchor="middle" font-size="10">Process Adaptation</text><circle cx="324" cy="160" r="6" fill="#82ca9d" opacity="0.7"></circle><text x="324" y="150" text-anchor="middle" font-size="10">Staff Engagement</text><circle cx="412" cy="220" r="6" fill="#82ca9d" opacity="0.7"></circle><text x="412" y="210" text-anchor="middle" font-size="10">System Integration</text><circle cx="236" cy="160" r="6" fill="#ffc658" opacity="0.7"></circle><text x="236" y="150" text-anchor="middle" font-size="10">Certification Recognition</text><circle cx="324" cy="220" r="6" fill="#ffc658" opacity="0.7"></circle><text x="324" y="210" text-anchor="middle" font-size="10">Competitive Position</text><circle cx="236" cy="220" r="6" fill="#ffc658" opacity="0.7"></circle><text x="236" y="210" text-anchor="middle" font-size="10">RFP Requirements</text><circle cx="510" cy="40" r="6" fill="#8884d8"></circle><text x="525" y="44" font-size="12">Implementation</text><circle cx="510" cy="60" r="6" fill="#82ca9d"></circle><text x="525" y="64" font-size="12">Operational</text><circle cx="510" cy="80" r="6" fill="#ffc658"></circle><text x="525" y="84" font-size="12">Market</text></svg>