<svg width="600" height="400" xmlns="http://www.w3.org/2000/svg"><text x="300" y="30" text-anchor="middle" font-size="16" font-weight="bold">ROI Projection</text><text x="300" y="390" text-anchor="middle">Months</text><text x="-200" y="25" transform="rotate(-90)" text-anchor="middle">Amount (NZD)</text><g><line x1="80" y1="40" x2="80" y2="340" stroke="#eee" stroke-width="1"></line><text x="80" y="360" text-anchor="middle">0</text></g><g><line x1="185" y1="40" x2="185" y2="340" stroke="#eee" stroke-width="1"></line><text x="185" y="360" text-anchor="middle">6</text></g><g><line x1="290" y1="40" x2="290" y2="340" stroke="#eee" stroke-width="1"></line><text x="290" y="360" text-anchor="middle">12</text></g><g><line x1="395" y1="40" x2="395" y2="340" stroke="#eee" stroke-width="1"></line><text x="395" y="360" text-anchor="middle">18</text></g><g><line x1="500" y1="40" x2="500" y2="340" stroke="#eee" stroke-width="1"></line><text x="500" y="360" text-anchor="middle">24</text></g><path d="M 80,323.3333333333333 L 185,323.3333333333333 L 290,323.3333333333333 L 395,323.3333333333333 L 500,323.3333333333333" stroke="#ff7300" stroke-width="2" fill="none" stroke-dasharray="5,5"></path><path d="M 80,206.66666666666669 L 185,181.66666666666666 L 290,148.33333333333334 L 395,106.66666666666666 L 500,56.666666666666686" stroke="#82ca9d" stroke-width="2" fill="none"></path><circle cx="80" cy="323.3333333333333" r="4" fill="#ff7300"></circle><circle cx="80" cy="206.66666666666669" r="4" fill="#82ca9d"></circle><circle cx="185" cy="323.3333333333333" r="4" fill="#ff7300"></circle><circle cx="185" cy="181.66666666666666" r="4" fill="#82ca9d"></circle><circle cx="290" cy="323.3333333333333" r="4" fill="#ff7300"></circle><circle cx="290" cy="148.33333333333334" r="4" fill="#82ca9d"></circle><circle cx="395" cy="323.3333333333333" r="4" fill="#ff7300"></circle><circle cx="395" cy="106.66666666666666" r="4" fill="#82ca9d"></circle><circle cx="500" cy="323.3333333333333" r="4" fill="#ff7300"></circle><circle cx="500" cy="56.666666666666686" r="4" fill="#82ca9d"></circle><rect x="440" y="20" width="15" height="2" fill="#ff7300"></rect><text x="460" y="25" font-size="12">Initial Investment</text><rect x="440" y="40" width="15" height="2" fill="#82ca9d"></rect><text x="460" y="45" font-size="12">Cumulative Return</text></svg>